<?xml version="1.0" encoding="utf-8"?>
<!-- Generator: Adobe Illustrator 16.0.0, SVG Export Plug-In . SVG Version: 6.00 Build 0)  -->
<!DOCTYPE svg PUBLIC "-//W3C//DTD SVG 1.1//EN" "http://www.w3.org/Graphics/SVG/1.1/DTD/svg11.dtd">
<svg version="1.1" xmlns="http://www.w3.org/2000/svg" xmlns:xlink="http://www.w3.org/1999/xlink" x="0px" y="0px" width="1200px"
	 height="1812px" viewBox="0 0 1200 1812" enable-background="new 0 0 1200 1812" xml:space="preserve">
<g id="Background_xA0_Image_1_">
</g>
<g id="Lock_1_" enable-background="new    ">
</g>
<g id="Lock_Open_1_" enable-background="new    ">
</g>
<g id="Volume_2_1_" enable-background="new    ">
</g>
<g id="Volume_1_1_" enable-background="new    ">
</g>
<g id="Volume_Off_1_" enable-background="new    ">
</g>
<g id="Target_1_" enable-background="new    ">
</g>
<g id="Male_1_" enable-background="new    ">
</g>
<g id="Female_1_" enable-background="new    ">
</g>
<g id="Link_1_" enable-background="new    ">
</g>
<g id="Paper_Clip_1_" enable-background="new    ">
</g>
<g id="Key_1_" enable-background="new    ">
</g>
<g id="Pointer_1_" enable-background="new    ">
</g>
<g id="Settings_1_" enable-background="new    ">
</g>
<g id="Envelope_1_" enable-background="new    ">
</g>
<g id="Paper_Plane_1_" enable-background="new    ">
</g>
<g id="Flag_1_" enable-background="new    ">
</g>
<g id="Eye_1_" enable-background="new    ">
</g>
<g id="Bubble_1_" enable-background="new    ">
</g>
<g id="Heart_1_" enable-background="new    ">
</g>
<g id="Star_1_" enable-background="new    ">
</g>
<g id="Female_User_1_" enable-background="new    ">
</g>
<g id="Male_User_1_" display="none" enable-background="new    ">
	<g id="Male_User">
		<g display="inline">
			<path fill="#1B1B1B" d="M916.549,1109.436l-196.887-93.361c62.676-49.332,83.885-146.228,83.885-200.531V702.487
				c0-74.881-103.656-158.257-203.547-158.257c-99.901,0-203.69,83.376-203.69,158.257v113.057
				c0,49.398,22.545,149.343,85.817,200.133l-198.686,93.759c0,0-45.211,20.148-45.211,45.223v67.89
				c0,24.986,20.248,45.223,45.211,45.223h633.108c24.986,0,45.223-20.236,45.223-45.223v-67.89
				C961.771,1128.082,916.549,1109.436,916.549,1109.436z M283.474,1222.548v-45.908c0-17.981,13.498-23.639,18.888-26.112
				l198.686-93.758c14.239-6.541,24.07-20.016,25.981-35.569c1.922-15.554-4.352-30.996-16.581-40.805
				c-47.001-37.733-68.894-120.679-68.894-164.852V702.487c0-47.266,82.293-113.012,158.445-113.012
				c76.825,0,158.301,64.708,158.301,113.012v113.057c0,43.511-18.094,126.765-66.629,164.984
				c-12.371,9.743-18.801,25.23-16.945,40.871c1.855,15.663,11.73,29.206,26.045,35.789l196.887,93.362
				c1.535,0.695,18.867,3.622,18.867,27.813l0.023,44.162L283.474,1222.548z"/>
		</g>
	</g>
	<g id="Home">
		<g display="inline">
			<path fill="#1B1B1B" d="M956.964,906.973l-339.741-355.88c-4.276-4.455-10.167-6.963-16.333-6.963s-12.057,2.508-16.334,6.963
				l-341.514,355.87c-8.653,9.019-8.354,23.341,0.663,32.005c9.018,8.641,23.329,8.396,32.004-0.664l30.424-31.703v338.639
				c0,12.52,10.134,22.633,22.633,22.633H486.88c12.466,0,22.589-10.068,22.633-22.557l0.718-226.084h180.344v226.008
				c0,12.52,10.129,22.633,22.632,22.633h158.054c12.511,0,22.633-10.113,22.633-22.633V906.467l30.403,31.857
				c4.441,4.621,10.388,6.961,16.333,6.961c5.637-0.02,11.294-2.098,15.67-6.318C965.318,930.324,965.604,915.99,956.964,906.973z
				 M848.629,865.564v357.041H735.841V996.598c0-12.51-10.119-22.633-22.634-22.633H487.675c-12.465,0-22.588,10.078-22.633,22.566
				l-0.718,226.074H351.398V865.564c0-1.876-0.232-3.698-0.663-5.442L600.89,599.452l248.479,260.361
				C848.887,861.649,848.629,863.577,848.629,865.564z"/>
		</g>
	</g>
	<g id="Folder">
		<g display="inline">
			<path fill="#1B1B1B" d="M917.626,690.54h-340.2l-68.041-68.04h-226.8c-25.05,0-45.36,20.311-45.36,45.361V781.26h-0.21v45.359
				h0.21v317.521c0,25.049,20.311,45.359,45.36,45.359h635.04c25.05,0,45.358-20.311,45.358-45.359v-408.24
				C962.984,710.85,942.676,690.54,917.626,690.54z M282.586,667.861h206.069l55.726,54.751l14.253,13.289h358.993v45.359h-635.04
				V667.861z M282.586,1144.141V826.619h635.04v317.521H282.586z"/>
		</g>
	</g>
	<g id="Document">
		<g display="inline">
			<path fill="#1B1B1B" d="M633.083,553.11H390.472c-24.359,0-44.11,19.751-44.11,44.111v617.56c0,24.36,19.751,44.111,44.11,44.111
				h419.056c24.36,0,44.111-19.751,44.111-44.111V773.675L633.083,553.11z M809.527,791.951v3.769h-198.5V597.221h3.791
				L809.527,791.951z M390.472,1214.781v-617.56h176.444v242.61h242.611v374.95H390.472z"/>
		</g>
	</g>
	<g id="Eye">
		<g display="inline">
			<path fill="#1B1B1B" d="M602.443,771.714c-74.706,0-135.276,60.571-135.276,135.276c0,74.706,60.57,135.277,135.276,135.277
				c74.707,0,135.277-60.571,135.277-135.277C737.721,832.285,677.15,771.714,602.443,771.714z M602.443,997.175
				c-49.726,0-91.218-41.438-91.218-91.175c0-49.727,40.457-90.184,90.185-90.184c49.736,0,90.184,40.457,90.184,90.184
				C691.594,955.737,652.182,997.175,602.443,997.175z M960.516,900.76c-0.264-1.134-0.131-2.345-0.484-3.456
				c-0.131-0.474-0.439-0.749-0.594-1.156c-0.242-0.64-0.176-1.398-0.506-2.015c-65.59-150.139-206.9-236.558-357.521-236.558
				c-150.613,0-294.773,86.265-360.375,236.414c-0.287,0.628-0.242,1.288-0.463,2.004c-0.154,0.44-0.484,0.683-0.627,1.101
				c-0.352,1.134-0.209,2.323-0.429,3.468c-0.418,2.025-0.804,4.008-0.804,6.044c0,2.08,0.386,4.008,0.804,6.055
				c0.22,1.124,0.077,2.367,0.429,3.446c0.144,0.506,0.473,0.727,0.627,1.166c0.221,0.628,0.176,1.388,0.463,2.004
				c65.601,150.139,208.353,235.148,358.964,235.148c150.623,0,293.342-84.834,358.932-234.972c0.33-0.639,0.264-1.321,0.506-2.026
				c0.154-0.396,0.463-0.682,0.594-1.111c0.354-1.09,0.221-2.312,0.484-3.457c0.396-2.025,0.771-3.996,0.771-6.066
				C961.287,904.756,960.912,902.808,960.516,900.76z M600,1109.333c-127.735,0-253.467-67.33-315.238-202.705
				c61.187-134.891,188.592-203.961,316.648-203.961c128.01,0,252.586,69.146,313.795,204.125
				C854.039,1041.65,728.055,1109.333,600,1109.333z"/>
		</g>
	</g>
	<g id="Left" display="inline">
		<g>
			<path fill="#1B1B1B" d="M600,542.085c-200.992,0-363.915,162.934-363.915,363.914c0,200.993,162.923,363.916,363.915,363.916
				c200.981,0,363.915-162.923,363.915-363.916C963.915,705.019,800.981,542.085,600,542.085z M600,1225.136
				c-175.583,0-318.426-143.554-318.426-319.137c0-175.582,142.843-318.425,318.426-318.425
				c175.582,0,318.426,142.843,318.426,318.425C918.426,1081.582,775.582,1225.136,600,1225.136z M759.436,883.01h-256.2
				l82.282-82.282c8.885-8.885,8.885-23.276,0-32.161c-8.884-8.886-23.278-8.886-32.163,0L419.009,906.466l134.347,137.89
				c4.442,4.442,10.262,6.663,16.082,6.663s11.639-2.221,16.081-6.663c8.885-8.885,8.885-23.277,0-32.162L501.816,928.5h257.619
				c12.571,0,22.745-10.184,22.745-22.743C782.181,893.195,772.007,883.01,759.436,883.01z"/>
		</g>
	</g>
</g>
<g id="Video_1_" enable-background="new    ">
</g>
<g id="Photo_1_" enable-background="new    ">
</g>
<g id="Clock_1_" enable-background="new    ">
</g>
<g id="Magnifier__x2B__1_" enable-background="new    ">
</g>
<g id="Magnifier_-_1_" enable-background="new    ">
</g>
<g id="Magnifier_1_" enable-background="new    ">
</g>
<g id="Document_1_" enable-background="new    ">
</g>
<g id="Folder_1_" enable-background="new    ">
</g>
<g id="Refresh_1_" enable-background="new    ">
</g>
<g id="Reload_1_" enable-background="new    ">
</g>
<g id="Download_1_" enable-background="new    ">
</g>
<g id="Upload_1_" enable-background="new    ">
</g>
<g id="Info_1_" enable-background="new    ">
</g>
<g id="Ban_1_" enable-background="new    ">
</g>
<g id="Power_1_" enable-background="new    ">
</g>
<g id="Close_1_" enable-background="new    ">
</g>
<g id="Plus_1_" enable-background="new    ">
</g>
<g id="Check_1_" enable-background="new    ">
	<g id="Photo" display="none">
		<g display="inline">
			<path fill="#1B1B1B" d="M895.239,701.604H790.778l-54.515-90.844H463.734l-54.504,90.844H304.76
				c-22.711,0-68.133,22.711-68.133,67.422v364.084c0,37.614,34.065,68.131,63.397,68.131h596.635
				c29.809,0,66.714-31.938,66.714-67.422V769.735C963.373,747.025,940.66,701.604,895.239,701.604z M917.95,1133.818
				c0,8.96-14.526,21.491-21.291,22.001H300.157c-5.256-0.433-18.108-10.669-18.108-22.71V769.025c0-14.394,19.328-21.635,22.711-22
				h130.188l13.229-22.057l41.273-68.787h222.595l40.542,68.798l12.486,22.046h130.166c16.013,0,22.489,20.914,22.711,22.71
				V1133.818z M599.999,769.735c-87.805,0-158.976,71.171-158.976,158.976c0,87.806,71.171,158.976,158.976,158.976
				s158.977-71.17,158.977-158.976C758.976,840.906,687.804,769.735,599.999,769.735z M599.999,1042.266
				c-62.609,0-113.554-50.944-113.554-113.555c0-62.609,50.944-113.553,113.554-113.553c62.61,0,113.554,50.943,113.554,113.553
				C713.553,991.321,662.609,1042.266,599.999,1042.266z"/>
		</g>
	</g>
	<g id="Check">
		<g>
			<path fill="#FFFFFF" d="M600,543.149c-200.394,0-362.851,162.457-362.851,362.851c0,200.405,162.457,362.852,362.851,362.852
				c200.405,0,362.852-162.446,362.852-362.852C962.852,705.606,800.404,543.149,600,543.149z M600,1224.203
				c-175.069,0-317.494-143.135-317.494-318.203c0-175.07,142.425-317.495,317.494-317.495S917.494,730.93,917.494,906
				C917.494,1081.068,775.068,1224.203,600,1224.203z M744.822,773.231L531.917,987.456l-95.875-95.874
				c-8.858-8.859-23.215-8.859-32.074,0c-8.853,8.858-8.853,23.22,0,32.068l112.25,112.251c8.858,8.858,23.215,8.858,32.074,0
				c1.056-1.055,1.977-2.192,2.781-3.385l225.822-227.218c8.854-8.847,8.854-23.209,0-32.068
				C768.037,764.372,753.676,764.372,744.822,773.231z"/>
		</g>
	</g>
</g>
</svg>
