<?xml version="1.0" encoding="utf-8"?>
<!-- Generator: Adobe Illustrator 16.0.0, SVG Export Plug-In . SVG Version: 6.00 Build 0)  -->
<!DOCTYPE svg PUBLIC "-//W3C//DTD SVG 1.1//EN" "http://www.w3.org/Graphics/SVG/1.1/DTD/svg11.dtd">
<svg version="1.1" id="Layer_1" xmlns="http://www.w3.org/2000/svg" xmlns:xlink="http://www.w3.org/1999/xlink" x="0px" y="0px"
	 width="1200px" height="1812px" viewBox="0 0 1200 1812" enable-background="new 0 0 1200 1812" xml:space="preserve">
<g id="Background_xA0_Image_1_">
</g>
<g id="Lock_1_" enable-background="new    ">
</g>
<g id="Lock_Open_1_" enable-background="new    ">
</g>
<g id="Volume_2_1_" enable-background="new    ">
</g>
<g id="Volume_1_1_" enable-background="new    ">
</g>
<g id="Volume_Off_1_" enable-background="new    ">
</g>
<g id="Target_1_" enable-background="new    ">
</g>
<g id="Male_1_" enable-background="new    ">
</g>
<g id="Female_1_" enable-background="new    ">
</g>
<g id="Link_1_" enable-background="new    ">
</g>
<g id="Paper_Clip_1_" enable-background="new    ">
</g>
<g id="Key_1_" enable-background="new    ">
</g>
<g id="Pointer_1_" enable-background="new    ">
</g>
<g id="Settings_1_" enable-background="new    ">
</g>
<g id="Envelope_1_" enable-background="new    ">
</g>
<g id="Paper_Plane_1_" enable-background="new    ">
</g>
<g id="Flag_1_" enable-background="new    ">
</g>
<g id="Eye_1_" enable-background="new    ">
</g>
<g id="Bubble_1_" enable-background="new    ">
</g>
<g id="Heart_1_" enable-background="new    ">
</g>
<g id="Star_1_" enable-background="new    ">
</g>
<g id="Female_User_1_" enable-background="new    ">
</g>
<g id="Male_User_1_" display="none" enable-background="new    ">
	<g id="Male_User" display="inline">
		<g>
			<path fill="#1B1B1B" d="M916.549,1109.436l-196.887-93.36c62.676-49.332,83.885-146.229,83.885-200.531V702.487
				c0-74.881-103.656-158.257-203.547-158.257c-99.901,0-203.69,83.375-203.69,158.257v113.057
				c0,49.398,22.546,149.343,85.817,200.133l-198.686,93.759c0,0-45.211,20.148-45.211,45.224v67.89
				c0,24.986,20.248,45.224,45.211,45.224h633.108c24.986,0,45.223-20.236,45.223-45.224v-67.89
				C961.771,1128.082,916.549,1109.436,916.549,1109.436z M283.474,1222.548v-45.908c0-17.98,13.498-23.639,18.888-26.111
				l198.686-93.759c14.239-6.541,24.07-20.016,25.981-35.568c1.922-15.554-4.353-30.996-16.581-40.805
				c-47.001-37.733-68.895-120.68-68.895-164.853V702.487c0-47.267,82.293-113.013,158.445-113.013
				c76.825,0,158.301,64.708,158.301,113.013v113.057c0,43.511-18.094,126.765-66.629,164.984
				c-12.371,9.743-18.801,25.229-16.945,40.871c1.855,15.663,11.73,29.206,26.046,35.788l196.887,93.362
				c1.535,0.695,18.867,3.622,18.867,27.813l0.022,44.162L283.474,1222.548z"/>
		</g>
	</g>
	<g id="Home" display="inline">
		<g>
			<path fill="#1B1B1B" d="M956.964,906.973l-339.741-355.88c-4.275-4.455-10.167-6.963-16.333-6.963s-12.057,2.508-16.334,6.963
				l-341.514,355.87c-8.653,9.02-8.354,23.341,0.663,32.005c9.018,8.642,23.329,8.396,32.004-0.664l30.424-31.703v338.64
				c0,12.52,10.134,22.633,22.633,22.633H486.88c12.466,0,22.589-10.068,22.633-22.557l0.719-226.084h180.344v226.008
				c0,12.52,10.129,22.633,22.632,22.633h158.054c12.511,0,22.633-10.113,22.633-22.633V906.467l30.403,31.857
				c4.441,4.621,10.388,6.961,16.333,6.961c5.637-0.021,11.294-2.099,15.67-6.318C965.318,930.324,965.604,915.99,956.964,906.973z
				 M848.629,865.564v357.041H735.841V996.598c0-12.51-10.119-22.633-22.634-22.633H487.675c-12.465,0-22.588,10.078-22.633,22.566
				l-0.718,226.074H351.398V865.564c0-1.876-0.232-3.698-0.663-5.442l250.154-260.67l248.479,260.36
				C848.887,861.649,848.629,863.577,848.629,865.564z"/>
		</g>
	</g>
	<g id="Folder" display="inline">
		<g>
			<path fill="#1B1B1B" d="M917.626,690.54h-340.2l-68.041-68.04h-226.8c-25.05,0-45.36,20.311-45.36,45.361V781.26h-0.21v45.359
				h0.21v317.521c0,25.05,20.311,45.359,45.36,45.359h635.04c25.05,0,45.357-20.312,45.357-45.359V735.9
				C962.984,710.85,942.676,690.54,917.626,690.54z M282.586,667.861h206.069l55.726,54.751l14.253,13.289h358.993v45.358h-635.04
				L282.586,667.861L282.586,667.861z M282.586,1144.141V826.619h635.04v317.521L282.586,1144.141L282.586,1144.141z"/>
		</g>
	</g>
	<g id="Document" display="inline">
		<g>
			<path fill="#1B1B1B" d="M633.083,553.11H390.472c-24.358,0-44.109,19.751-44.109,44.11v617.561
				c0,24.359,19.751,44.11,44.109,44.11h419.057c24.359,0,44.11-19.751,44.11-44.11V773.675L633.083,553.11z M809.527,791.951v3.769
				h-198.5V597.221h3.791L809.527,791.951z M390.472,1214.781V597.221h176.444v242.61h242.611v374.95H390.472z"/>
		</g>
	</g>
	<g id="Eye" display="inline">
		<g>
			<path fill="#1B1B1B" d="M602.443,771.714c-74.706,0-135.276,60.571-135.276,135.276c0,74.706,60.57,135.276,135.276,135.276
				c74.707,0,135.276-60.57,135.276-135.276C737.721,832.285,677.15,771.714,602.443,771.714z M602.443,997.175
				c-49.727,0-91.219-41.438-91.219-91.175c0-49.727,40.457-90.184,90.186-90.184c49.736,0,90.184,40.457,90.184,90.184
				C691.594,955.737,652.182,997.175,602.443,997.175z M960.516,900.76c-0.264-1.134-0.131-2.345-0.483-3.456
				c-0.131-0.474-0.439-0.749-0.595-1.155c-0.241-0.641-0.176-1.398-0.506-2.016c-65.59-150.139-206.899-236.558-357.521-236.558
				c-150.613,0-294.773,86.265-360.375,236.414c-0.287,0.628-0.242,1.288-0.463,2.004c-0.154,0.439-0.484,0.683-0.627,1.101
				c-0.352,1.135-0.209,2.323-0.429,3.469c-0.418,2.024-0.804,4.008-0.804,6.044c0,2.08,0.386,4.008,0.804,6.055
				c0.22,1.124,0.077,2.367,0.429,3.446c0.144,0.506,0.473,0.727,0.627,1.166c0.221,0.628,0.176,1.388,0.463,2.004
				c65.601,150.139,208.353,235.147,358.964,235.147c150.623,0,293.342-84.834,358.932-234.972c0.33-0.639,0.265-1.321,0.506-2.026
				c0.154-0.396,0.464-0.682,0.595-1.11c0.354-1.091,0.221-2.312,0.483-3.457c0.396-2.025,0.771-3.996,0.771-6.066
				C961.287,904.756,960.912,902.808,960.516,900.76z M600,1109.333c-127.735,0-253.467-67.33-315.238-202.705
				c61.187-134.891,188.591-203.961,316.648-203.961c128.01,0,252.586,69.146,313.795,204.125
				C854.039,1041.65,728.055,1109.333,600,1109.333z"/>
		</g>
	</g>
	<g id="Left" display="inline">
		<g>
			<path fill="#1B1B1B" d="M600,542.085c-200.992,0-363.915,162.935-363.915,363.914c0,200.993,162.923,363.916,363.915,363.916
				c200.981,0,363.915-162.923,363.915-363.916C963.915,705.019,800.981,542.085,600,542.085z M600,1225.136
				c-175.583,0-318.426-143.554-318.426-319.137c0-175.582,142.843-318.425,318.426-318.425
				c175.582,0,318.426,142.843,318.426,318.425C918.426,1081.582,775.582,1225.136,600,1225.136z M759.436,883.01H503.236
				l82.281-82.281c8.886-8.886,8.886-23.276,0-32.161c-8.884-8.887-23.277-8.887-32.163,0L419.009,906.466l134.348,137.89
				c4.441,4.442,10.262,6.663,16.081,6.663c5.82,0,11.64-2.221,16.081-6.663c8.886-8.885,8.886-23.276,0-32.161L501.816,928.5
				h257.618c12.571,0,22.745-10.184,22.745-22.743C782.181,893.195,772.007,883.01,759.436,883.01z"/>
		</g>
	</g>
</g>
<g id="Video_1_" enable-background="new    ">
</g>
<g id="Photo_1_" enable-background="new    ">
</g>
<g id="Clock_1_" enable-background="new    ">
</g>
<g id="Magnifier__x2B__1_" enable-background="new    ">
</g>
<g id="Magnifier_-_1_" enable-background="new    ">
</g>
<g id="Magnifier_1_" enable-background="new    ">
</g>
<g id="Document_1_" enable-background="new    ">
</g>
<g id="Folder_1_" enable-background="new    ">
</g>
<g id="Refresh_1_" enable-background="new    ">
</g>
<g id="Reload_1_" enable-background="new    ">
</g>
<g id="Download_1_" enable-background="new    ">
</g>
<g id="Upload_1_" enable-background="new    ">
</g>
<g id="Info_1_" enable-background="new    ">
</g>
<g id="Ban_1_" enable-background="new    ">
</g>
<g id="Power_1_" enable-background="new    ">
</g>
<g id="Close_1_" enable-background="new    ">
</g>
<g id="Plus_1_" enable-background="new    ">
</g>
<g id="Check_1_" enable-background="new    ">
	<rect x="236.741" y="619.653" display="none" fill="#FFFFFF" width="103.133" height="449.812"/>
	<rect x="336.028" y="619.653" display="none" fill="#FFFFFF" width="134.773" height="79.943"/>
	<rect x="336.028" y="989.521" display="none" fill="#FFFFFF" width="134.773" height="79.944"/>
	<rect x="336.028" y="799.977" display="none" fill="#FFFFFF" width="134.773" height="69.338"/>
	<path display="none" fill="#FFFFFF" d="M470.802,1069.467c0,0,142.886,4.504,142.886-132.766c0,0,6.239-111.689-84.233-111.689
		c0,0,68.635-5.098,68.635-85.588s-56.156-119.771-127.287-119.771s-67.387,39.972-67.387,39.972l50.54,39.972h16.847
		c0,0,31.821,0,31.821,46.797s-18.718,53.582-39.933,53.582c-21.216,0-29.326,34.669-29.326,34.669l37.437,34.668
		c0,0,47.42-0.625,47.42,61.771s-49.917,58.438-62.396,58.438c-12.479,0-8.735,32.036-8.735,32.036L470.802,1069.467z"/>
	<path display="none" fill="#FFFFFF" d="M804.257,734.091c-172.977,0-172.821,172.825-172.821,172.825
		s-11.868,171.948,172.826,171.948c0,0,153.917,8.795,153.917-119.613H879.02c0,0,2.638,48.366-72.119,48.366
		c0,0-79.16,5.294-79.16-78.269h233.077C960.816,929.35,986.314,734.091,804.257,734.091z M726.857,869.312
		c0,0,9.676-69.337,79.158-69.337c69.483,0,68.603,69.337,68.603,69.337H726.857z"/>
	<rect x="707.49" y="646.153" display="none" fill="#FFFFFF" width="185.577" height="55.395"/>
	<g id="ball">
		<g>
			<path fill="#FFFFFF" d="M600,541.544c-200.962,0-364.456,163.494-364.456,364.454c0,200.965,163.494,364.457,364.456,364.457
				c200.96,0,364.456-163.492,364.456-364.457C964.456,705.039,800.96,541.544,600,541.544z M840.967,709.615
				c43.355,52.976,69.609,120.442,70.297,193.919c-10.265-2.17-113.182-23.045-216.767-10.02c-2.183-5.33-4.415-10.686-6.706-16.065
				c-6.464-15.183-13.407-30.264-20.654-45.094C782.234,785.366,834.404,718.494,840.967,709.615z M600,595.173
				c79.099,0,151.385,29.673,206.358,78.443c-5.601,7.975-52.459,70.962-163.154,112.448
				c-51.01-93.722-107.551-170.716-116.154-182.236C550.458,598.182,574.882,595.173,600,595.173z M467.651,624.753
				c8.207,11.254,63.834,88.341,115.417,180.035c-145.617,38.667-273.871,38.111-287.795,37.926
				C315.46,746.115,380.56,665.83,467.651,624.753z M288.697,906.474c0-3.18,0.064-6.35,0.158-9.513
				c13.622,0.282,164.477,2.225,319.938-44.297c8.909,17.441,17.421,35.145,25.238,52.825c-4.121,1.162-8.21,2.395-12.271,3.707
				c-160.549,51.896-245.982,193.354-253.036,205.426C319.007,1059.432,288.697,986.43,288.697,906.474z M600,1217.776
				c-71.967,0-138.298-24.557-191.079-65.718c5.603-11.451,68.631-133.216,244.216-194.4c0.686-0.236,1.368-0.461,2.052-0.692
				c43.708,113.572,61.782,208.758,66.411,236.069C684.224,1208.956,643.124,1217.776,600,1217.776z M773.938,1164.537
				c-3.194-18.939-19.764-110.068-60.481-221.957c97.554-15.615,183.256,9.949,193.907,13.309
				C893.486,1042.507,843.771,1117.312,773.938,1164.537z"/>
		</g>
	</g>
</g>
</svg>
