<?xml version="1.0" encoding="utf-8"?>
<!-- Generator: Adobe Illustrator 16.0.0, SVG Export Plug-In . SVG Version: 6.00 Build 0)  -->
<!DOCTYPE svg PUBLIC "-//W3C//DTD SVG 1.1//EN" "http://www.w3.org/Graphics/SVG/1.1/DTD/svg11.dtd">
<svg version="1.1" xmlns="http://www.w3.org/2000/svg" xmlns:xlink="http://www.w3.org/1999/xlink" x="0px" y="0px" width="1200px"
	 height="1812px" viewBox="0 0 1200 1812" enable-background="new 0 0 1200 1812" xml:space="preserve">
<g id="Background_xA0_Image_1_">
</g>
<g id="Lock_1_" enable-background="new    ">
</g>
<g id="Lock_Open_1_" enable-background="new    ">
</g>
<g id="Volume_2_1_" enable-background="new    ">
</g>
<g id="Volume_1_1_" enable-background="new    ">
</g>
<g id="Volume_Off_1_" enable-background="new    ">
</g>
<g id="Target_1_" enable-background="new    ">
</g>
<g id="Male_1_" enable-background="new    ">
</g>
<g id="Female_1_" enable-background="new    ">
</g>
<g id="Link_1_" enable-background="new    ">
</g>
<g id="Paper_Clip_1_" enable-background="new    ">
</g>
<g id="Key_1_" enable-background="new    ">
</g>
<g id="Pointer_1_" enable-background="new    ">
</g>
<g id="Settings_1_" enable-background="new    ">
</g>
<g id="Envelope_1_" enable-background="new    ">
</g>
<g id="Paper_Plane_1_" enable-background="new    ">
</g>
<g id="Flag_1_" enable-background="new    ">
</g>
<g id="Eye_1_" enable-background="new    ">
</g>
<g id="Bubble_1_" enable-background="new    ">
</g>
<g id="Heart_1_" enable-background="new    ">
</g>
<g id="Star_1_" enable-background="new    ">
</g>
<g id="Female_User_1_" enable-background="new    ">
</g>
<g id="Male_User_1_" display="none" enable-background="new    ">
	<g id="Male_User">
		<g display="inline">
			<path fill="#1B1B1B" d="M916.549,1109.436l-196.887-93.361c62.676-49.332,83.885-146.228,83.885-200.531V702.487
				c0-74.881-103.656-158.257-203.547-158.257c-99.901,0-203.69,83.376-203.69,158.257v113.057
				c0,49.398,22.545,149.343,85.817,200.133l-198.686,93.759c0,0-45.211,20.148-45.211,45.223v67.89
				c0,24.986,20.248,45.223,45.211,45.223h633.108c24.986,0,45.223-20.236,45.223-45.223v-67.89
				C961.771,1128.082,916.549,1109.436,916.549,1109.436z M283.474,1222.548v-45.908c0-17.981,13.498-23.639,18.888-26.112
				l198.686-93.758c14.239-6.541,24.07-20.016,25.981-35.569c1.922-15.554-4.352-30.996-16.581-40.805
				c-47.001-37.733-68.894-120.679-68.894-164.852V702.487c0-47.266,82.293-113.012,158.445-113.012
				c76.825,0,158.301,64.708,158.301,113.012v113.057c0,43.511-18.094,126.765-66.629,164.984
				c-12.371,9.743-18.801,25.23-16.945,40.871c1.855,15.663,11.73,29.206,26.045,35.789l196.887,93.362
				c1.535,0.695,18.867,3.622,18.867,27.813l0.023,44.162L283.474,1222.548z"/>
		</g>
	</g>
	<g id="Home">
		<g display="inline">
			<path fill="#1B1B1B" d="M956.964,906.973l-339.741-355.88c-4.276-4.455-10.167-6.963-16.333-6.963s-12.057,2.508-16.334,6.963
				l-341.514,355.87c-8.653,9.019-8.354,23.341,0.663,32.005c9.018,8.641,23.329,8.396,32.004-0.664l30.424-31.703v338.639
				c0,12.52,10.134,22.633,22.633,22.633H486.88c12.466,0,22.589-10.068,22.633-22.557l0.718-226.084h180.344v226.008
				c0,12.52,10.129,22.633,22.632,22.633h158.054c12.511,0,22.633-10.113,22.633-22.633V906.467l30.403,31.857
				c4.441,4.621,10.388,6.961,16.333,6.961c5.637-0.02,11.294-2.098,15.67-6.318C965.318,930.324,965.604,915.99,956.964,906.973z
				 M848.629,865.564v357.041H735.841V996.598c0-12.51-10.119-22.633-22.634-22.633H487.675c-12.465,0-22.588,10.078-22.633,22.566
				l-0.718,226.074H351.398V865.564c0-1.876-0.232-3.698-0.663-5.442L600.89,599.452l248.479,260.361
				C848.887,861.649,848.629,863.577,848.629,865.564z"/>
		</g>
	</g>
	<g id="Folder">
		<g display="inline">
			<path fill="#1B1B1B" d="M917.626,690.54h-340.2l-68.041-68.04h-226.8c-25.05,0-45.36,20.311-45.36,45.361V781.26h-0.21v45.359
				h0.21v317.521c0,25.049,20.311,45.359,45.36,45.359h635.04c25.05,0,45.358-20.311,45.358-45.359v-408.24
				C962.984,710.85,942.676,690.54,917.626,690.54z M282.586,667.861h206.069l55.726,54.751l14.253,13.289h358.993v45.359h-635.04
				V667.861z M282.586,1144.141V826.619h635.04v317.521H282.586z"/>
		</g>
	</g>
	<g id="Document">
		<g display="inline">
			<path fill="#1B1B1B" d="M633.083,553.11H390.472c-24.359,0-44.11,19.751-44.11,44.111v617.56c0,24.36,19.751,44.111,44.11,44.111
				h419.056c24.36,0,44.111-19.751,44.111-44.111V773.675L633.083,553.11z M809.527,791.951v3.769h-198.5V597.221h3.791
				L809.527,791.951z M390.472,1214.781v-617.56h176.444v242.61h242.611v374.95H390.472z"/>
		</g>
	</g>
	<g id="Eye">
		<g display="inline">
			<path fill="#1B1B1B" d="M602.443,771.714c-74.706,0-135.276,60.571-135.276,135.276c0,74.706,60.57,135.277,135.276,135.277
				c74.707,0,135.277-60.571,135.277-135.277C737.721,832.285,677.15,771.714,602.443,771.714z M602.443,997.175
				c-49.726,0-91.218-41.438-91.218-91.175c0-49.727,40.457-90.184,90.185-90.184c49.736,0,90.184,40.457,90.184,90.184
				C691.594,955.737,652.182,997.175,602.443,997.175z M960.516,900.76c-0.264-1.134-0.131-2.345-0.484-3.456
				c-0.131-0.474-0.439-0.749-0.594-1.156c-0.242-0.64-0.176-1.398-0.506-2.015c-65.59-150.139-206.9-236.558-357.521-236.558
				c-150.613,0-294.773,86.265-360.375,236.414c-0.287,0.628-0.242,1.288-0.463,2.004c-0.154,0.44-0.484,0.683-0.627,1.101
				c-0.352,1.134-0.209,2.323-0.429,3.468c-0.418,2.025-0.804,4.008-0.804,6.044c0,2.08,0.386,4.008,0.804,6.055
				c0.22,1.124,0.077,2.367,0.429,3.446c0.144,0.506,0.473,0.727,0.627,1.166c0.221,0.628,0.176,1.388,0.463,2.004
				c65.601,150.139,208.353,235.148,358.964,235.148c150.623,0,293.342-84.834,358.932-234.972c0.33-0.639,0.264-1.321,0.506-2.026
				c0.154-0.396,0.463-0.682,0.594-1.111c0.354-1.09,0.221-2.312,0.484-3.457c0.396-2.025,0.771-3.996,0.771-6.066
				C961.287,904.756,960.912,902.808,960.516,900.76z M600,1109.333c-127.735,0-253.467-67.33-315.238-202.705
				c61.187-134.891,188.592-203.961,316.648-203.961c128.01,0,252.586,69.146,313.795,204.125
				C854.039,1041.65,728.055,1109.333,600,1109.333z"/>
		</g>
	</g>
	<g id="Left" display="inline">
		<g>
			<path fill="#1B1B1B" d="M600,542.085c-200.992,0-363.915,162.934-363.915,363.914c0,200.993,162.923,363.916,363.915,363.916
				c200.981,0,363.915-162.923,363.915-363.916C963.915,705.019,800.981,542.085,600,542.085z M600,1225.136
				c-175.583,0-318.426-143.554-318.426-319.137c0-175.582,142.843-318.425,318.426-318.425
				c175.582,0,318.426,142.843,318.426,318.425C918.426,1081.582,775.582,1225.136,600,1225.136z M759.436,883.01h-256.2
				l82.282-82.282c8.885-8.885,8.885-23.276,0-32.161c-8.884-8.886-23.278-8.886-32.163,0L419.009,906.466l134.347,137.89
				c4.442,4.442,10.262,6.663,16.082,6.663s11.639-2.221,16.081-6.663c8.885-8.885,8.885-23.277,0-32.162L501.816,928.5h257.619
				c12.571,0,22.745-10.184,22.745-22.743C782.181,893.195,772.007,883.01,759.436,883.01z"/>
		</g>
	</g>
</g>
<g id="Video_1_" enable-background="new    ">
</g>
<g id="Photo_1_" enable-background="new    ">
</g>
<g id="Clock_1_" enable-background="new    ">
</g>
<g id="Magnifier__x2B__1_" enable-background="new    ">
</g>
<g id="Magnifier_-_1_" enable-background="new    ">
</g>
<g id="Magnifier_1_" enable-background="new    ">
</g>
<g id="Document_1_" enable-background="new    ">
</g>
<g id="Folder_1_" enable-background="new    ">
</g>
<g id="Refresh_1_" enable-background="new    ">
</g>
<g id="Reload_1_" enable-background="new    ">
</g>
<g id="Download_1_" enable-background="new    ">
</g>
<g id="Upload_1_" enable-background="new    ">
</g>
<g id="Info_1_" enable-background="new    ">
</g>
<g id="Ban_1_" enable-background="new    ">
</g>
<g id="Power_1_" enable-background="new    ">
</g>
<g id="Close_1_" enable-background="new    ">
</g>
<g id="Plus_1_" enable-background="new    ">
</g>
<g id="Check_1_" enable-background="new    ">
	<g id="Upload">
		<g>
			<path fill="#1B1B1B" d="M778.459,727.019c-31.701-84.109-99.832-137.371-202.737-137.371
				c-130.947,0-222.557,97.225-230.436,224.076c-63.137,20.195-108.709,84.598-108.709,157.544
				c0,89.303,70.194,164.734,153.271,164.734h65.656c12.55,0,22.725-10.164,22.725-22.726c0-12.561-10.175-22.725-22.725-22.725
				h-65.656c-58.444,0-108.531-54.615-108.531-119.284c0-57.145,40.068-108.698,90.323-117.331l20.628-3.551l-1.843-20.838
				l-0.166-0.267c0-110.695,72.846-194.183,185.462-194.183c90.266,0,140.977,44.474,164.434,120.327l4.848,15.646l16.391,0.355
				c84.408,1.775,158.441,70.261,158.441,155.369c0,77.452-51.318,163.758-129.049,163.758h-51.93
				c-12.549,0-22.725,10.164-22.725,22.725c0,12.562,10.176,22.726,22.725,22.726l51.752-0.066
				c113.625-2.997,172.812-111.562,172.812-209.142C963.422,821.891,881.223,738.07,778.459,727.019z M617.211,908.086
				c-0.111-0.133-0.156-0.267-0.268-0.377l-5.748-6.015c-3.15-3.329-7.346-4.971-11.517-4.949c-4.195-0.021-8.367,1.62-11.562,4.949
				l-5.748,6.015c-0.111,0.11-0.132,0.267-0.243,0.377l-82.023,90.723c-6.347,6.635-6.347,17.376,0,24.034l5.726,3.884
				c6.348,6.636,16.644,4.482,22.991-2.153l48.369-53.942v228.997c0,12.549,10.175,22.725,22.725,22.725
				c12.55,0,22.726-10.176,22.726-22.725V970.866l49.988,55.128c6.346,6.636,16.621,8.788,22.969,2.152l5.727-3.883
				c6.346-6.658,6.346-17.399,0-24.035L617.211,908.086z"/>
		</g>
	</g>
</g>
</svg>
